<?xml version="1.0" encoding="UTF-8" standalone="no"?>
<svg
   xmlns:dc="http://purl.org/dc/elements/1.1/"
   xmlns:cc="http://creativecommons.org/ns#"
   xmlns:rdf="http://www.w3.org/1999/02/22-rdf-syntax-ns#"
   xmlns:svg="http://www.w3.org/2000/svg"
   xmlns="http://www.w3.org/2000/svg"
   xmlns:sodipodi="http://sodipodi.sourceforge.net/DTD/sodipodi-0.dtd"
   xmlns:inkscape="http://www.inkscape.org/namespaces/inkscape"
   baseProfile="tiny"
   height="44px"
   version="1.1"
   viewBox="0 0 44 44"
   width="44px"
   x="0px"
   y="0px"
   id="svg2540"
   sodipodi:version="0.32"
   inkscape:version="0.46"
   sodipodi:docname="qgn_menu_mp_qt.svg"
   inkscape:output_extension="org.inkscape.output.svg.inkscape">
  <sodipodi:namedview
     inkscape:window-height="675"
     inkscape:window-width="640"
     inkscape:pageshadow="2"
     inkscape:pageopacity="0.0"
     guidetolerance="10.0"
     gridtolerance="10.0"
     objecttolerance="10.0"
     borderopacity="1.0"
     bordercolor="#666666"
     pagecolor="#ffffff"
     id="base"
     showgrid="false"
     inkscape:zoom="10.5"
     inkscape:cx="22"
     inkscape:cy="22"
     inkscape:window-x="66"
     inkscape:window-y="66"
     inkscape:current-layer="svg2540" />
  <metadata
     id="metadata2588">
    <rdf:RDF>
      <cc:Work
         rdf:about="">
        <dc:format>image/svg+xml</dc:format>
        <dc:type
           rdf:resource="http://purl.org/dc/dcmitype/StillImage" />
      </cc:Work>
    </rdf:RDF>
  </metadata>
  <defs
     id="defs2586">
    <inkscape:perspective
       sodipodi:type="inkscape:persp3d"
       inkscape:vp_x="0 : 22 : 1"
       inkscape:vp_y="0 : 1000 : 0"
       inkscape:vp_z="44 : 22 : 1"
       inkscape:persp3d-origin="22 : 14.666667 : 1"
       id="perspective2590" />
  </defs>
  <path
     d="M31.068,18.234c-0.971,0-1.903,0.156-2.779,0.438v-6.482c0,0-6.265-5.348-16.133-5.742v18.551  c-1.031-0.416-2.25-0.574-3.52-0.354c-3.031,0.533-5.131,2.932-4.711,5.357c0.426,2.418,3.229,3.959,6.261,3.418  c2.821-0.494,5.182-2.652,5.182-4.859v-15.51c0.603,0.131,5.905,0.99,9.649,3.867v3.646c-1.847,1.66-3.016,4.059-3.016,6.736  c0,0.66,0.075,1.303,0.209,1.922c-0.236,0.016-0.473,0.033-0.713,0.074c-3.031,0.535-5.129,2.932-4.713,5.357  c0.43,2.414,3.229,3.957,6.262,3.418c1.775-0.313,3.391-1.264,4.346-2.488c1.123,0.5,2.365,0.783,3.676,0.783  c5.012,0,9.064-4.059,9.064-9.066C40.133,22.295,36.08,18.234,31.068,18.234z"
     fill-opacity="0.5"
     stroke-opacity="0.5"
     id="path2542" />
  <path
     d="M31.068,17.234c-0.608,0-1.203,0.055-1.78,0.158v-5.203c0-0.293-0.128-0.572-0.351-0.762  c-0.092-0.07-6.521-5.561-16.742-5.982c-0.271-0.01-1.041,0.729-1.041,1V23.67c-0.879-0.163-1.799-0.172-2.697-0.01  c-3.133,0.555-5.553,2.881-5.584,5.719c-0.03,2.69,2.466,5.156,6.1,5.148c3.811-0.032,7.308-2.69,7.395-5.965V14.275  c1.781,0.402,5.08,1.32,7.65,3.146v2.707c-1.854,1.82-3.018,4.361-3.016,7.172c0,0.359,0.021,0.715,0.059,1.063  c-3.014,0.641-5.299,2.918-5.328,5.674c0,2.768,2.539,5.141,6.089,5.141h0.017c2.035,0,4.284-0.833,5.833-2.404  c1.061,0.383,2.204,0.594,3.397,0.594c5.563,0,10.064-4.508,10.064-10.066S36.632,17.234,31.068,17.234z"
     fill-opacity="0.2"
     stroke-opacity="0.2"
     id="path2544" />
  <rect
     fill="none"
     height="44"
     width="44"
     id="rect2546" />
  <linearGradient
     gradientUnits="userSpaceOnUse"
     id="SVGID_1_"
     x1="16.0806"
     x2="16.0806"
     y1="17.2456"
     y2="42.8985">
    <stop
       offset="0"
       style="stop-color:#70e814"
       id="stop2549" />
    <stop
       offset="0.1845"
       style="stop-color:#6fdf17"
       id="stop2551" />
    <stop
       offset="0.3881"
       style="stop-color:#6ac621"
       id="stop2553" />
    <stop
       offset="0.6009"
       style="stop-color:#5fad1f"
       id="stop2555" />
    <stop
       offset="0.8186"
       style="stop-color:#538e19"
       id="stop2557" />
    <stop
       offset="1"
       style="stop-color:#446f13"
       id="stop2559" />
  </linearGradient>
  <path
     d="M12.156,23.998c-1.031-0.416-2.25-0.574-3.52-0.354c-3.031,0.533-5.131,2.932-4.711,5.357  c0.426,2.418,3.229,3.959,6.261,3.418c2.821-0.494,5.182-2.652,5.182-4.859v-15.51c0.603,0.131,5.905,0.99,9.649,3.867v12.73  c-1.03-0.414-2.25-0.574-3.52-0.352c-3.031,0.535-5.129,2.932-4.713,5.357c0.43,2.414,3.229,3.957,6.262,3.418  c2.82-0.496,5.242-2.602,5.242-4.859V11.189c0,0-6.265-5.348-16.133-5.742V23.998z"
     fill="url(#SVGID_1_)"
     id="path2561" />
  <path
     d="M28.289,11.189c0,0-6.265-5.348-16.133-5.742v18.551c-1.031-0.416-2.25-0.574-3.52-0.354  c-3.031,0.533-5.131,2.932-4.711,5.357c0.192,1.094,0.873,2.01,1.842,2.633l0.746-0.674c-1.382-0.772-1.682-1.872-1.682-2.58  c-0.029-1.59,1.551-3.367,3.973-3.789c2.208-0.402,3.585,0.667,4.313,0.83V6.465c4.315,0.328,7.863,1.615,10.379,2.863  c1.668,0.828,3.525,2.042,4.793,3.02V11.189z M25.018,28.648c-1.03-0.414-2.25-0.574-3.52-0.352  c-3.031,0.535-5.129,2.932-4.713,5.357c0.201,1.135,0.932,2.074,1.959,2.697l0.762-0.682c-1.551-0.799-1.813-1.978-1.813-2.633  c-0.029-1.596,1.55-3.371,3.973-3.795c2.35-0.413,4.027,0.85,4.313,0.92V16.666l-0.961-0.748V28.648z"
     fill="#FFFFFF"
     fill-opacity="0.3"
     stroke-opacity="0.3"
     id="path2563" />
  <path
     d="M25.018,28.648c-1.03-0.414-2.25-0.574-3.52-0.352c-0.02,0.004-0.039,0.01-0.061,0.014  c0.34,3.162,2.201,5.861,4.834,7.365c1.215-0.92,2.018-2.166,2.018-3.463L25.018,28.648z"
     fill-opacity="0.3"
     stroke-opacity="0.3"
     id="path2565" />
  <linearGradient
     gradientUnits="userSpaceOnUse"
     id="SVGID_2_"
     x1="31.0674"
     x2="31.0674"
     y1="16.4692"
     y2="42.2276">
    <stop
       offset="0"
       style="stop-color:#f0f0f0"
       id="stop2568" />
    <stop
       offset="1"
       style="stop-color:#bca1a1"
       id="stop2570" />
  </linearGradient>
  <path
     d="M40.133,26.301c0,5.008-4.053,9.066-9.064,9.066c-5.006,0-9.066-4.059-9.066-9.066  c0-5.006,4.061-9.066,9.066-9.066C36.08,17.234,40.133,21.295,40.133,26.301z"
     fill="url(#SVGID_2_)"
     id="path2572" />
  <path
     d="M37.362,26.303c0-0.314-0.165-0.604-0.442-0.758L28.843,21c-0.581-0.332-1.296,0.106-1.296,0.76v9.088  c0.004,0.309,0.186,0.586,0.438,0.74l0.546-0.939l0.01-0.01v-8.674l7.791,4.289l0.979,0.252l-0.001,0.002  C37.316,26.471,37.361,26.408,37.362,26.303z"
     fill-opacity="0.2"
     stroke-opacity="0.2"
     id="path2574" />
  <path
     d="M36.332,26.254l-7.801,4.395l-0.548,0.943l0.022,0.012c0.264,0.15,0.586,0.142,0.837,0l8.077-4.543  c0.218-0.123,0.335-0.336,0.391-0.549l0.001-0.006L36.332,26.254z"
     fill="#FFFFFF"
     id="path2576" />
  <linearGradient
     gradientUnits="userSpaceOnUse"
     id="SVGID_3_"
     x1="32.458"
     x2="32.458"
     y1="25.874"
     y2="52.6238">
    <stop
       offset="0"
       style="stop-color:#1469b4"
       id="stop2579" />
    <stop
       offset="1"
       style="stop-color:#26134c"
       id="stop2581" />
  </linearGradient>
  <polygon
     fill="url(#SVGID_3_)"
     points="28.42,21.76 28.42,30.848 36.496,26.303 "
     id="polygon2583" />
  <text
     xml:space="preserve"
     style="font-size:12px;font-style:normal;font-weight:normal;fill:#e30000;fill-opacity:1;stroke:none;stroke-width:1px;stroke-linecap:butt;stroke-linejoin:miter;stroke-opacity:1;font-family:Bitstream Vera Sans"
     x="29.619047"
     y="13.047619"
     id="text2616"><tspan
       sodipodi:role="line"
       id="tspan2618" /></text>
  <text
     xml:space="preserve"
     style="font-size:12px;font-style:normal;font-weight:normal;fill:#e30000;fill-opacity:1;stroke:none;stroke-width:1px;stroke-linecap:butt;stroke-linejoin:miter;stroke-opacity:1;font-family:Bitstream Vera Sans"
     x="23.142857"
     y="13.142857"
     id="text2620"><tspan
       sodipodi:role="line"
       id="tspan2622" /></text>
</svg>
