<?xml version="1.0" encoding="utf-8"?>
<!-- Generator: Adobe Illustrator 14.0.0, SVG Export Plug-In . SVG Version: 6.00 Build 43363)  -->
<!DOCTYPE svg PUBLIC "-//W3C//DTD SVG 1.1//EN" "http://www.w3.org/Graphics/SVG/1.1/DTD/svg11.dtd">
<svg version="1.1" xmlns="http://www.w3.org/2000/svg" xmlns:xlink="http://www.w3.org/1999/xlink" x="0px" y="0px" width="35px"
	 height="35px" viewBox="0 0 35 35" enable-background="new 0 0 35 35" xml:space="preserve">
<g id="Layer_1">
</g>
<g id="Layer_2">
	<linearGradient id="SVGID_1_" gradientUnits="userSpaceOnUse" x1="9.8100586" y1="25.4345703" x2="25.8537941" y2="9.3908329">
		<stop  offset="0" style="stop-color:#FFFFFF"/>
		<stop  offset="0.533742" style="stop-color:#C4C4C4"/>
		<stop  offset="1" style="stop-color:#FFFFFF"/>
	</linearGradient>
	<path fill="url(#SVGID_1_)" d="M17.8320312,6.0688477c-6.2646484,0-11.34375,5.078125-11.34375,11.3447266
		c0,6.2661133,5.0791016,11.3442383,11.34375,11.3442383c6.265625,0,11.3447266-5.078125,11.3447266-11.3442383
		C29.1767578,11.1469727,24.0976562,6.0688477,17.8320312,6.0688477z M19.8300781,25.8691406h-3.4628906V15.5717773h-1.1894531
		v-1.9707031h4.6523438V25.8691406z M19.4707031,11.9047852c-0.34375,0.28125-0.8007812,0.4238281-1.3710938,0.4238281
		c-0.5634766,0-1.0166016-0.1425781-1.3613281-0.4238281s-0.5175781-0.6699219-0.5175781-1.1630859
		c0-0.4863281,0.1699219-0.8720703,0.5068359-1.1582031c0.3378906-0.2851562,0.7939453-0.4267578,1.3720703-0.4267578
		c0.5498047,0,1.0019531,0.1445312,1.3564453,0.4326172c0.3535156,0.2880859,0.5322266,0.6728516,0.5322266,1.1523438
		C19.9882812,11.2348633,19.8164062,11.6235352,19.4707031,11.9047852z"/>
</g>
</svg>
