<?xml version="1.0" encoding="utf-8"?>
<!-- Generator: Adobe Illustrator 14.0.0, SVG Export Plug-In . SVG Version: 6.00 Build 43363)  -->
<!DOCTYPE svg PUBLIC "-//W3C//DTD SVG 1.1//EN" "http://www.w3.org/Graphics/SVG/1.1/DTD/svg11.dtd">
<svg version="1.1" xmlns="http://www.w3.org/2000/svg" xmlns:xlink="http://www.w3.org/1999/xlink" x="0px" y="0px" width="35px"
	 height="35px" viewBox="0 0 35 35" enable-background="new 0 0 35 35" xml:space="preserve">
<g id="Layer_1">
</g>
<g id="Layer_2">
	<g>
		
			<linearGradient id="SVGID_1_" gradientUnits="userSpaceOnUse" x1="-307.9033203" y1="-17.6152344" x2="-293.7667542" y2="-31.7518024" gradientTransform="matrix(-1 0 0 -1 -290.4023438 -7.2705078)">
			<stop  offset="0" style="stop-color:#FFFFFF"/>
			<stop  offset="0.533742" style="stop-color:#C4C4C4"/>
			<stop  offset="1" style="stop-color:#FFFFFF"/>
		</linearGradient>
		<path fill="url(#SVGID_1_)" d="M14.6044922,26.8007812c0,0.7695312-0.6220703,1.390625-1.390625,1.390625H7.6503906
			c-0.7675781,0-1.390625-0.6210938-1.390625-1.390625V8.0249023c0-0.7675781,0.6230469-1.390625,1.390625-1.390625h5.5634766
			c0.7685547,0,1.390625,0.6230469,1.390625,1.390625V26.8007812z"/>
		<g>
			
				<linearGradient id="SVGID_2_" gradientUnits="userSpaceOnUse" x1="-322.15625" y1="-19.1289062" x2="-311.0487061" y2="-30.2364368" gradientTransform="matrix(-1 0 0 -1 -290.4023438 -7.2705078)">
				<stop  offset="0" style="stop-color:#FFFFFF"/>
				<stop  offset="0.533742" style="stop-color:#C4C4C4"/>
				<stop  offset="1" style="stop-color:#FFFFFF"/>
			</linearGradient>
			<path fill="url(#SVGID_2_)" d="M28.9775391,25.1015625c0,1.0996094-0.7460938,1.4970703-1.6582031,0.8818359L16.2626953,18.53125
				c-0.9121094-0.6147461-0.9121094-1.6206055,0-2.2353516l11.0566406-7.453125
				C28.2314453,8.2280273,28.9775391,8.625,28.9775391,9.7250977V25.1015625z"/>
		</g>
	</g>
</g>
</svg>
