<?xml version="1.0" encoding="utf-8"?>
<!-- Generator: Adobe Illustrator 14.0.0, SVG Export Plug-In . SVG Version: 6.00 Build 43363)  -->
<!DOCTYPE svg PUBLIC "-//W3C//DTD SVG 1.1//EN" "http://www.w3.org/Graphics/SVG/1.1/DTD/svg11.dtd">
<svg version="1.1" xmlns="http://www.w3.org/2000/svg" xmlns:xlink="http://www.w3.org/1999/xlink" x="0px" y="0px" width="50px"
	 height="50px" viewBox="0 0 50 50" enable-background="new 0 0 50 50" xml:space="preserve">
<g id="Layer_3">
</g>
<g id="Layer_1">
	<g>
		<linearGradient id="SVGID_1_" gradientUnits="userSpaceOnUse" x1="34.934082" y1="10.2143555" x2="14.5689669" y2="39.2987518">
			<stop  offset="0" style="stop-color:#7EE7FD"/>
			<stop  offset="0.533742" style="stop-color:#119EE0"/>
			<stop  offset="1" style="stop-color:#7EE7FD"/>
		</linearGradient>
		<path fill="url(#SVGID_1_)" d="M24.7519531,7.0058594C14.9477539,7.0058594,7,14.953125,7,24.7578125
			c0,9.8027344,7.9477539,17.75,17.7519531,17.75s17.7519531-7.9472656,17.7519531-17.75
			C42.5039062,14.953125,34.5561523,7.0058594,24.7519531,7.0058594z M24.7519531,38.8457031
			c-7.7802734,0-14.0883789-6.3085938-14.0883789-14.0878906c0-7.78125,6.3081055-14.0898438,14.0883789-14.0898438
			c7.7797852,0,14.0878906,6.3085938,14.0878906,14.0898438C38.8398438,32.5371094,32.5317383,38.8457031,24.7519531,38.8457031z"/>
		<linearGradient id="SVGID_2_" gradientUnits="userSpaceOnUse" x1="30.7680664" y1="15.4790039" x2="18.7067165" y2="32.7043953">
			<stop  offset="0" style="stop-color:#7EE7FD"/>
			<stop  offset="0.533742" style="stop-color:#119EE0"/>
			<stop  offset="1" style="stop-color:#7EE7FD"/>
		</linearGradient>
		<path fill="url(#SVGID_2_)" d="M32.6728516,21.4609375l0.0019531-4.6474609
			c-1.7460938-1.1748047-4.9008789-1.9462891-8.1796875-1.9814453v11.7636719
			C23.6293945,26.25,22.609375,26.1171875,21.546875,26.3017578c-2.5429688,0.4482422-4.3041992,2.4599609-3.9541016,4.4931641
			c0.3588867,2.0273438,2.7094727,3.3183594,5.2514648,2.8671875c2.3671875-0.4140625,4.034668-2.1894531,3.9667969-4.0751953
			v-9.9755859C29.3076172,19.9179688,31.5717773,20.640625,32.6728516,21.4609375z"/>
	</g>
</g>
<g id="Layer_4">
</g>
<g id="Layer_2">
</g>
</svg>
