<?xml version="1.0" encoding="utf-8"?>
<!-- Generator: Adobe Illustrator 14.0.0, SVG Export Plug-In . SVG Version: 6.00 Build 43363)  -->
<!DOCTYPE svg PUBLIC "-//W3C//DTD SVG 1.1//EN" "http://www.w3.org/Graphics/SVG/1.1/DTD/svg11.dtd">
<svg version="1.1" xmlns="http://www.w3.org/2000/svg" xmlns:xlink="http://www.w3.org/1999/xlink" x="0px" y="0px" width="50px"
	 height="50px" viewBox="0 0 50 50" enable-background="new 0 0 50 50" xml:space="preserve">
<g id="Layer_3">
</g>
<g id="Layer_1">
	<linearGradient id="SVGID_1_" gradientUnits="userSpaceOnUse" x1="32.7128906" y1="18.1611328" x2="14.38379" y2="44.3377991">
		<stop  offset="0" style="stop-color:#7EE7FD"/>
		<stop  offset="0.533742" style="stop-color:#119EE0"/>
		<stop  offset="1" style="stop-color:#7EE7FD"/>
	</linearGradient>
	<path fill="url(#SVGID_1_)" d="M26.0581055,36.7416992c-0.5-4.171875,0.453125-7.8925781,0.9082031-9.0253906
		c0.453125-1.1367188,0.1347656-2.4960938,3.6738281,1.1777344c3.5371094,3.6757812,4.4902344,3.7207031,5.9873047,4.6738281
		c1.4970703,0.9511719,4.9443359,3.8554688,5.4892578,4.4003906c0.5439453,0.5429688,1.9960938,1.1328125,2.9941406,1.1777344
		c0.9980469,0.046875,0.8164062-0.453125,0.8164062-0.453125s-0.7265625-0.9082031-0.4082031-1.9960938
		c0.3164062-1.0878906-1.3164062-1.0429688-1.3164062-1.0429688c-2.5390625-0.2265625-3.7636719-2.0410156-3.7636719-2.0410156
		c-2.0878906-3.5390625-6.8056641-7.53125-6.8515625-7.6699219c-0.0439453-0.1367188-2.765625-1.7207031-3.8095703-3.9902344
		c-1.0439453-2.2675781-3.1298828-4.4902344-3.1298828-4.4902344c-1.1347656-1.4960938-3.9921875-0.6347656-3.9921875-0.6347656
		s-1.9960938,0.2714844-1.2705078-0.8164062c0.7255859-1.0898438,0.1367188-1.1796875-0.25-1.7695312
		c-0.3876953-0.5898438-0.1123047-1.2714844-0.1123047-1.2714844c0.6347656-2.3574219-1.5878906-3.8554688-2.4951172-4.7167969
		s-2.9951172-0.953125-3.6748047-0.3632812s-0.9521484,0.6816406-0.9521484,0.6816406
		c-1.8154297,0.1816406-3.5849609,2.8125-3.9931641,2.8574219c-0.4072266,0.0449219-0.4072266,0.3632812-0.2265625,0.3164062
		c0.1816406-0.0449219,0.2265625,0.4101562,0.3632812,0.5c0.1367188,0.0917969,0.4541016,0.453125,0.4541016,0.8164062
		s-0.0908203,0.953125,0.4082031,1.2246094s0,1.1796875,0,1.1796875s0.0908203,0.9980469-0.3642578,0.953125
		c-0.453125-0.0449219-0.8144531,0.8164062-0.8144531,1.1328125c0,0.3183594-0.3183594,0.4101562-0.4101562,0.2285156
		c-0.0898438-0.1816406-0.6796875-0.7714844-0.8154297-0.4082031c-0.1367188,0.3632812-1.3613281,1.2695312-1.9501953,1.6328125
		c-0.5898438,0.3632812-0.453125,0.9082031-0.453125,0.9082031l-3.5390625,2.1757812l0.6347656,1.1347656l2.359375-1.5429688
		c-0.1826172,0.5449219,0.4082031,1.0429688,0.6796875,0.9082031c0.2724609-0.1367188,0.953125-0.2265625,0.8164062,0.7246094
		c-0.1367188,0.953125,1.3154297,8.8476562,2.2695312,11.25c0.9521484,2.4042969,2.8574219,1.0898438,3.7636719,0.1816406
		c0.9072266-0.90625,0.8173828-0.0898438,0.8173828-0.0898438c-0.8173828,4.8535156,0,9.3442383,0,9.3442383
		S19.9858398,37.8198242,26.0581055,36.7416992z M17.121582,21.6811523c0,0-2.8583984,2.7675781-2.8134766,3.1757812
		c0.046875,0.4082031,0.1914062,0.9960938-0.4023438,2.0410156c-0.5957031,1.0449219-1.8652344,3.0214844-1.9101562,3.7578125
		c-0.0449219,0.734375-1.3613281-3.7578125-2.0410156-5.4804688c-0.6806641-1.7246094-0.3183594-3.5292969-0.2265625-3.8066406
		c0.0898438-0.2773438,0.2597656-1.921875,0.6796875-1.9550781c0,0,1.859375-0.0449219,1.9042969-0.8613281
		c0.0458984-0.8183594,0.2734375-1.0449219,0.5-0.453125c0.2265625,0.5878906,0.6347656,1.4960938,1.4960938,1.5859375
		c0.8613281,0.0917969,2.1777344-0.9980469,2.8134766,0C17.7563477,20.6831055,17.121582,21.6811523,17.121582,21.6811523z"/>
</g>
<g id="Layer_4">
</g>
<g id="Layer_2">
</g>
</svg>
