<?xml version="1.0" encoding="utf-8"?>
<!-- Generator: Adobe Illustrator 14.0.0, SVG Export Plug-In . SVG Version: 6.00 Build 43363)  -->
<!DOCTYPE svg PUBLIC "-//W3C//DTD SVG 1.1//EN" "http://www.w3.org/Graphics/SVG/1.1/DTD/svg11.dtd">
<svg version="1.1" xmlns="http://www.w3.org/2000/svg" xmlns:xlink="http://www.w3.org/1999/xlink" x="0px" y="0px" width="50px"
	 height="50px" viewBox="0 0 50 50" enable-background="new 0 0 50 50" xml:space="preserve">
<g id="Layer_3">
</g>
<g id="Layer_1">
	<g>
		<linearGradient id="SVGID_1_" gradientUnits="userSpaceOnUse" x1="14.8422852" y1="36.230957" x2="22.840332" y2="36.230957">
			<stop  offset="0" style="stop-color:#FFFFFF"/>
			<stop  offset="0.533742" style="stop-color:#C4C4C4"/>
			<stop  offset="1" style="stop-color:#FFFFFF"/>
		</linearGradient>
		<circle fill="url(#SVGID_1_)" cx="18.8413086" cy="36.2304688" r="3.9990234"/>
		<linearGradient id="SVGID_2_" gradientUnits="userSpaceOnUse" x1="29.5063477" y1="36.230957" x2="37.5043945" y2="36.230957">
			<stop  offset="0" style="stop-color:#FFFFFF"/>
			<stop  offset="0.533742" style="stop-color:#C4C4C4"/>
			<stop  offset="1" style="stop-color:#FFFFFF"/>
		</linearGradient>
		<circle fill="url(#SVGID_2_)" cx="33.5053711" cy="36.2304688" r="3.9990234"/>
		<linearGradient id="SVGID_3_" gradientUnits="userSpaceOnUse" x1="4.4902344" y1="21.28125" x2="44.3554688" y2="21.28125">
			<stop  offset="0" style="stop-color:#FFFFFF"/>
			<stop  offset="0.533742" style="stop-color:#C4C4C4"/>
			<stop  offset="1" style="stop-color:#FFFFFF"/>
		</linearGradient>
		<path fill="url(#SVGID_3_)" d="M43.144043,14.7685547l-0.5097656-0.2617188
			c-0.9345703-0.4804688-1.9521484-0.3662109-2.2714844,0.2548828l-6.140625,11.9472656H18.4135742l-5.5234375-15.4257812H6.605957
			c0,0-2.0947266,0.1914062-2.0947266,2.2851562c0,0-0.3808594,1.8095703,2.0947266,1.8095703h3.046875l5.3320312,15.9013672
			h20.5195312c0,0,1.3554688-0.0771484,1.8808594-1.1845703c0.0253906-0.0351562,0.0556641-0.0664062,0.0761719-0.1054688
			l6.796875-13.2246094C44.5786133,16.1435547,44.0795898,15.25,43.144043,14.7685547z"/>
		<linearGradient id="SVGID_4_" gradientUnits="userSpaceOnUse" x1="31.1323242" y1="11.5473633" x2="21.6741943" y2="25.0549717">
			<stop  offset="0" style="stop-color:#FFFFFF"/>
			<stop  offset="0.533742" style="stop-color:#C4C4C4"/>
			<stop  offset="1" style="stop-color:#FFFFFF"/>
		</linearGradient>
		<polygon fill="url(#SVGID_4_)" points="17.0756836,16.0097656 19.8413086,23.7714844 33.5053711,23.7714844 
			37.5043945,16.0097656 		"/>
	</g>
</g>
<g id="Layer_4">
</g>
<g id="Layer_2">
</g>
</svg>
