<?xml version="1.0" encoding="utf-8"?>
<!-- Generator: Adobe Illustrator 14.0.0, SVG Export Plug-In . SVG Version: 6.00 Build 43363)  -->
<!DOCTYPE svg PUBLIC "-//W3C//DTD SVG 1.1//EN" "http://www.w3.org/Graphics/SVG/1.1/DTD/svg11.dtd">
<svg version="1.1" xmlns="http://www.w3.org/2000/svg" xmlns:xlink="http://www.w3.org/1999/xlink" x="0px" y="0px" width="50px"
	 height="50px" viewBox="0 0 50 50" enable-background="new 0 0 50 50" xml:space="preserve">
<g id="Layer_3">
</g>
<g id="Layer_1">
	<g>
		
			<linearGradient id="SVGID_1_" gradientUnits="userSpaceOnUse" x1="-165.065918" y1="10.2138672" x2="-185.4311066" y2="39.2983627">
			<stop  offset="0" style="stop-color:#FFFFFF"/>
			<stop  offset="0.533742" style="stop-color:#C4C4C4"/>
			<stop  offset="1" style="stop-color:#FFFFFF"/>
		</linearGradient>
		<path fill="url(#SVGID_1_)" d="M-175.2480469,7.0058594C-185.0522461,7.0058594-193,14.953125-193,24.7578125
			c0,9.8027344,7.9477539,17.75,17.7519531,17.75s17.7519531-7.9472656,17.7519531-17.75
			C-157.4960938,14.953125-165.4438477,7.0058594-175.2480469,7.0058594z M-175.2480469,38.8457031
			c-7.7802734,0-14.0883789-6.3085938-14.0883789-14.0878906c0-7.78125,6.3081055-14.0898438,14.0883789-14.0898438
			c7.7797852,0,14.0878906,6.3085938,14.0878906,14.0898438C-161.1601562,32.5371094-167.4682617,38.8457031-175.2480469,38.8457031
			z"/>
		
			<linearGradient id="SVGID_2_" gradientUnits="userSpaceOnUse" x1="-169.230957" y1="15.4790039" x2="-181.2923126" y2="32.7043953">
			<stop  offset="0" style="stop-color:#FFFFFF"/>
			<stop  offset="0.533742" style="stop-color:#C4C4C4"/>
			<stop  offset="1" style="stop-color:#FFFFFF"/>
		</linearGradient>
		<path fill="url(#SVGID_2_)" d="M-167.3271484,21.4609375l0.0019531-4.6474609
			c-1.7460938-1.1748047-4.9008789-1.9462891-8.1796875-1.9814453v11.7636719
			c-0.8657227-0.3457031-1.8857422-0.4785156-2.9482422-0.2939453c-2.5429688,0.4482422-4.3041992,2.4599609-3.9541016,4.4931641
			c0.3588867,2.0273438,2.7094727,3.3183594,5.2514648,2.8671875c2.3671875-0.4140625,4.034668-2.1894531,3.9667969-4.0751953
			v-9.9755859C-170.6923828,19.9179688-168.4282227,20.640625-167.3271484,21.4609375z"/>
	</g>
	<g>
		<linearGradient id="SVGID_3_" gradientUnits="userSpaceOnUse" x1="-62.40625" y1="6.6694336" x2="-72.756813" y2="21.4515686">
			<stop  offset="0" style="stop-color:#FFFFFF"/>
			<stop  offset="0.533742" style="stop-color:#C4C4C4"/>
			<stop  offset="1" style="stop-color:#FFFFFF"/>
		</linearGradient>
		<path fill="url(#SVGID_3_)" d="M-56.0864258,11.1708984h-22.9853516c-0.1933594,0-0.3486328,0.1542969-0.3486328,0.3457031
			v5.0878906c0,0.1914062,0.1552734,0.3476562,0.3486328,0.3476562h22.9853516c0.1904297,0,0.3466797-0.15625,0.3466797-0.3476562
			v-5.0878906C-55.7397461,11.3251953-55.8959961,11.1708984-56.0864258,11.1708984z"/>
		
			<linearGradient id="SVGID_4_" gradientUnits="userSpaceOnUse" x1="-68.9145508" y1="18.2080078" x2="-79.2658157" y2="32.9911423">
			<stop  offset="0" style="stop-color:#FFFFFF"/>
			<stop  offset="0.533742" style="stop-color:#C4C4C4"/>
			<stop  offset="1" style="stop-color:#FFFFFF"/>
		</linearGradient>
		<path fill="url(#SVGID_4_)" d="M-62.5961914,22.7080078H-85.581543c-0.1923828,0-0.3476562,0.15625-0.3476562,0.3476562v5.0878906
			c0,0.1933594,0.1552734,0.3476562,0.3476562,0.3476562h22.9853516c0.1904297,0,0.3466797-0.1542969,0.3466797-0.3476562
			v-5.0878906C-62.2495117,22.8642578-62.4057617,22.7080078-62.5961914,22.7080078z"/>
		
			<linearGradient id="SVGID_5_" gradientUnits="userSpaceOnUse" x1="-63.5732422" y1="28.8540039" x2="-73.9236679" y2="43.6359367">
			<stop  offset="0" style="stop-color:#FFFFFF"/>
			<stop  offset="0.533742" style="stop-color:#C4C4C4"/>
			<stop  offset="1" style="stop-color:#FFFFFF"/>
		</linearGradient>
		<path fill="url(#SVGID_5_)" d="M-57.2553711,33.3544922h-22.984375c-0.1933594,0-0.3486328,0.15625-0.3486328,0.3457031v5.0898438
			c0,0.1914062,0.1552734,0.3457031,0.3486328,0.3457031h22.984375c0.1904297,0,0.3476562-0.1542969,0.3476562-0.3457031v-5.0898438
			C-56.9077148,33.5107422-57.0649414,33.3544922-57.2553711,33.3544922z"/>
		<g>
			
				<linearGradient id="SVGID_6_" gradientUnits="userSpaceOnUse" x1="-82.0732422" y1="10.6352539" x2="-88.1915741" y2="19.3731422">
				<stop  offset="0" style="stop-color:#FFFFFF"/>
				<stop  offset="0.533742" style="stop-color:#C4C4C4"/>
				<stop  offset="1" style="stop-color:#FFFFFF"/>
			</linearGradient>
			<path fill="url(#SVGID_6_)" d="M-82.3100586,19.6669922h-5.4619141v-1.2011719h1.6679688v-7.3359375l-1.8320312,0.390625
				v-1.203125l2.8710938-0.9238281h1.2177734v9.0722656h1.5371094V19.6669922z"/>
		</g>
		<g>
			
				<linearGradient id="SVGID_7_" gradientUnits="userSpaceOnUse" x1="-87.9726562" y1="21.6542969" x2="-94.3171463" y2="30.7151661">
				<stop  offset="0" style="stop-color:#FFFFFF"/>
				<stop  offset="0.533742" style="stop-color:#C4C4C4"/>
				<stop  offset="1" style="stop-color:#FFFFFF"/>
			</linearGradient>
			<path fill="url(#SVGID_7_)" d="M-87.8422852,30.7509766h-6.4248047v-0.8945312
				c0-0.734375,0.1816406-1.4472656,0.5458984-2.1367188c0.3652344-0.6914062,1.0644531-1.4667969,2.0996094-2.3261719
				c0.546875-0.4609375,0.921875-0.8417969,1.1230469-1.1386719c0.203125-0.2988281,0.3046875-0.6367188,0.3046875-1.0097656
				c0-0.96875-0.5234375-1.4550781-1.5712891-1.4550781c-0.5839844,0-1.3027344,0.1542969-2.1542969,0.4648438v-1.3867188
				c0.9345703-0.2792969,1.8447266-0.4179688,2.7285156-0.4179688c1.0849609,0,1.90625,0.2285156,2.4667969,0.6855469
				c0.5605469,0.4589844,0.8417969,1.1367188,0.8417969,2.0292969c0,0.4257812-0.0693359,0.8203125-0.2089844,1.1757812
				s-0.3447266,0.6894531-0.6142578,1c-0.2714844,0.3125-0.6738281,0.6894531-1.2060547,1.1386719
				c-0.5898438,0.4921875-1.0175781,0.8769531-1.2861328,1.15625c-0.2695312,0.2832031-0.4794922,0.5664062-0.6318359,0.8554688
				c-0.1533203,0.2890625-0.2431641,0.5898438-0.2705078,0.9003906h4.2578125V30.7509766z"/>
		</g>
		<g>
			<linearGradient id="SVGID_8_" gradientUnits="userSpaceOnUse" x1="-84.03125" y1="32.6533203" x2="-90.2001343" y2="41.4634056">
				<stop  offset="0" style="stop-color:#FFFFFF"/>
				<stop  offset="0.533742" style="stop-color:#C4C4C4"/>
				<stop  offset="1" style="stop-color:#FFFFFF"/>
			</linearGradient>
			<path fill="url(#SVGID_8_)" d="M-89.4047852,33.3994141v-1.3554688c0.8710938-0.2226562,1.6865234-0.3359375,2.4482422-0.3359375
				c2.2001953,0,3.3007812,0.84375,3.3007812,2.53125c0,1.1933594-0.6132812,1.9824219-1.8447266,2.3652344
				c0.6416016,0.1171875,1.1386719,0.3847656,1.4892578,0.8085938c0.3505859,0.4199219,0.5263672,0.9472656,0.5263672,1.5761719
				c0,1.0488281-0.3076172,1.8320312-0.9228516,2.3520508c-0.6142578,0.5175781-1.5664062,0.7792969-2.8554688,0.7792969
				c-0.8388672,0-1.6572266-0.1074219-2.4560547-0.3203125v-1.355957c0.9589844,0.2246094,1.6679688,0.3359375,2.1328125,0.3359375
				c0.6074219,0,1.0576172-0.1425781,1.3505859-0.421875c0.2949219-0.28125,0.4423828-0.7226562,0.4423828-1.328125
				c0-0.6601562-0.2060547-1.1210938-0.6171875-1.3789062c-0.4091797-0.2578125-1.2128906-0.3847656-2.4042969-0.3847656v-1.2929688
				c1.1201172,0,1.8828125-0.1152344,2.2861328-0.3457031c0.4023438-0.2304688,0.6044922-0.6445312,0.6044922-1.2460938
				c0-0.8886719-0.4990234-1.3320312-1.4970703-1.3320312C-87.8764648,33.0498047-88.5385742,33.1650391-89.4047852,33.3994141z"/>
		</g>
	</g>
	
		<linearGradient id="SVGID_9_" gradientUnits="userSpaceOnUse" x1="-116.2871094" y1="18.1611328" x2="-134.6162109" y2="44.3377991">
		<stop  offset="0" style="stop-color:#FFFFFF"/>
		<stop  offset="0.533742" style="stop-color:#C4C4C4"/>
		<stop  offset="1" style="stop-color:#FFFFFF"/>
	</linearGradient>
	<path fill="url(#SVGID_9_)" d="M-122.9418945,36.7416992c-0.5-4.171875,0.453125-7.8925781,0.9082031-9.0253906
		c0.453125-1.1367188,0.1347656-2.4960938,3.6738281,1.1777344c3.5371094,3.6757812,4.4902344,3.7207031,5.9873047,4.6738281
		c1.4970703,0.9511719,4.9443359,3.8554688,5.4892578,4.4003906c0.5439453,0.5429688,1.9960938,1.1328125,2.9941406,1.1777344
		c0.9980469,0.046875,0.8164062-0.453125,0.8164062-0.453125s-0.7265625-0.9082031-0.4082031-1.9960938
		c0.3164062-1.0878906-1.3164062-1.0429688-1.3164062-1.0429688c-2.5390625-0.2265625-3.7636719-2.0410156-3.7636719-2.0410156
		c-2.0878906-3.5390625-6.8056641-7.53125-6.8515625-7.6699219c-0.0439453-0.1367188-2.765625-1.7207031-3.8095703-3.9902344
		c-1.0439453-2.2675781-3.1298828-4.4902344-3.1298828-4.4902344c-1.1347656-1.4960938-3.9921875-0.6347656-3.9921875-0.6347656
		s-1.9960938,0.2714844-1.2705078-0.8164062c0.7255859-1.0898438,0.1367188-1.1796875-0.25-1.7695312
		c-0.3876953-0.5898438-0.1123047-1.2714844-0.1123047-1.2714844c0.6347656-2.3574219-1.5878906-3.8554688-2.4951172-4.7167969
		s-2.9951172-0.953125-3.6748047-0.3632812s-0.9521484,0.6816406-0.9521484,0.6816406
		c-1.8154297,0.1816406-3.5849609,2.8125-3.9931641,2.8574219c-0.4072266,0.0449219-0.4072266,0.3632812-0.2265625,0.3164062
		c0.1816406-0.0449219,0.2265625,0.4101562,0.3632812,0.5c0.1367188,0.0917969,0.4541016,0.453125,0.4541016,0.8164062
		s-0.0908203,0.953125,0.4082031,1.2246094s0,1.1796875,0,1.1796875s0.0908203,0.9980469-0.3642578,0.953125
		c-0.453125-0.0449219-0.8144531,0.8164062-0.8144531,1.1328125c0,0.3183594-0.3183594,0.4101562-0.4101562,0.2285156
		c-0.0898438-0.1816406-0.6796875-0.7714844-0.8154297-0.4082031c-0.1367188,0.3632812-1.3613281,1.2695312-1.9501953,1.6328125
		c-0.5898438,0.3632812-0.453125,0.9082031-0.453125,0.9082031l-3.5390625,2.1757812l0.6347656,1.1347656l2.359375-1.5429688
		c-0.1826172,0.5449219,0.4082031,1.0429688,0.6796875,0.9082031c0.2724609-0.1367188,0.953125-0.2265625,0.8164062,0.7246094
		c-0.1367188,0.953125,1.3154297,8.8476562,2.2695312,11.25c0.9521484,2.4042969,2.8574219,1.0898438,3.7636719,0.1816406
		c0.9072266-0.90625,0.8173828-0.0898438,0.8173828-0.0898438c-0.8173828,4.8535156,0,9.3442383,0,9.3442383
		S-129.0141602,37.8198242-122.9418945,36.7416992z M-131.878418,21.6811523c0,0-2.8583984,2.7675781-2.8134766,3.1757812
		c0.046875,0.4082031,0.1914062,0.9960938-0.4023438,2.0410156c-0.5957031,1.0449219-1.8652344,3.0214844-1.9101562,3.7578125
		c-0.0449219,0.734375-1.3613281-3.7578125-2.0410156-5.4804688c-0.6806641-1.7246094-0.3183594-3.5292969-0.2265625-3.8066406
		c0.0898438-0.2773438,0.2597656-1.921875,0.6796875-1.9550781c0,0,1.859375-0.0449219,1.9042969-0.8613281
		c0.0458984-0.8183594,0.2734375-1.0449219,0.5-0.453125c0.2265625,0.5878906,0.6347656,1.4960938,1.4960938,1.5859375
		c0.8613281,0.0917969,2.1777344-0.9980469,2.8134766,0C-131.2436523,20.6831055-131.878418,21.6811523-131.878418,21.6811523z"/>
	<g>
		
			<linearGradient id="SVGID_10_" gradientUnits="userSpaceOnUse" x1="-22.5996094" y1="16.8032227" x2="-31.2312622" y2="29.1305008">
			<stop  offset="0" style="stop-color:#FFFFFF"/>
			<stop  offset="0.533742" style="stop-color:#C4C4C4"/>
			<stop  offset="1" style="stop-color:#FFFFFF"/>
		</linearGradient>
		<path fill="url(#SVGID_10_)" d="M-23.9985352,29.4658203l-0.5322266-1.9902344
			c-0.5371094,0.7421875-1.1386719,1.2910156-1.8056641,1.6464844c-0.6660156,0.3554688-1.4814453,0.5332031-2.4443359,0.5332031
			c-1.3652344,0-2.4257812-0.3613281-3.1787109-1.0839844c-0.7539062-0.7226562-1.1308594-1.734375-1.1308594-3.0371094
			c0-1.578125,0.5488281-2.7246094,1.6455078-3.4394531c1.0966797-0.7128906,3.0625-1.078125,5.8964844-1.09375v-0.8652344
			c0-0.6386719-0.0751953-1.1191406-0.2246094-1.4433594c-0.1513672-0.3242188-0.4072266-0.5898438-0.7705078-0.7988281
			s-0.9082031-0.3144531-1.6337891-0.3144531c-0.9472656,0-2.1660156,0.2285156-3.6582031,0.6855469v-2.2832031
			c1.7441406-0.4179688,3.3300781-0.6289062,4.7597656-0.6289062c1.7832031,0,3.1337891,0.390625,4.0488281,1.1738281
			c0.9150391,0.7792969,1.3730469,1.9335938,1.3730469,3.4550781v9.484375H-23.9985352z M-26.1879883,22.9423828
			c-1.1767578,0-1.9794922,0.234375-2.4091797,0.7050781c-0.4306641,0.46875-0.6455078,1.0742188-0.6455078,1.8164062
			c0,1.3105469,0.5322266,1.9648438,1.5986328,1.9648438c0.6787109,0,1.1972656-0.2207031,1.5566406-0.6621094
			s0.5390625-1.0859375,0.5390625-1.9296875v-1.8945312H-26.1879883z"/>
		
			<linearGradient id="SVGID_11_" gradientUnits="userSpaceOnUse" x1="-13.6391602" y1="15.0205078" x2="-29.8131485" y2="38.1193542">
			<stop  offset="0" style="stop-color:#FFFFFF"/>
			<stop  offset="0.533742" style="stop-color:#C4C4C4"/>
			<stop  offset="1" style="stop-color:#FFFFFF"/>
		</linearGradient>
		<path fill="url(#SVGID_11_)" d="M-6.496582,37.9423828l-8.0986328-8.1015625
			c3.0068359-5.3691406,2.2431641-12.2871094-2.3251953-16.8535156c-5.5029297-5.5039062-14.4296875-5.5039062-19.9345703,0
			c-5.5048828,5.5058594-5.5048828,14.4335938,0,19.9375c4.9902344,4.9902344,12.7822266,5.4394531,18.2978516,1.3847656
			l7.8476562,7.8500977c0.6621094,0.6601562,1.7382812,0.6601562,2.4023438-0.0039062l1.8105469-1.809082
			C-5.8344727,39.6845703-5.8305664,38.6064453-6.496582,37.9423828z M-34.9155273,30.9873047
			c-4.4355469-4.4375-4.4355469-11.6269531-0.0009766-16.0585938c4.4326172-4.4375,11.6220703-4.4375,16.0576172,0
			c4.4326172,4.4335938,4.4326172,11.6230469,0,16.0566406C-23.293457,35.4189453-30.480957,35.4189453-34.9155273,30.9873047z"/>
	</g>
	<g>
		<linearGradient id="SVGID_12_" gradientUnits="userSpaceOnUse" x1="14.8422852" y1="36.230957" x2="22.840332" y2="36.230957">
			<stop  offset="0" style="stop-color:#FFFFFF"/>
			<stop  offset="0.533742" style="stop-color:#C4C4C4"/>
			<stop  offset="1" style="stop-color:#FFFFFF"/>
		</linearGradient>
		<circle fill="url(#SVGID_12_)" cx="18.8413086" cy="36.2304688" r="3.9990234"/>
		<linearGradient id="SVGID_13_" gradientUnits="userSpaceOnUse" x1="29.5063477" y1="36.230957" x2="37.5043945" y2="36.230957">
			<stop  offset="0" style="stop-color:#FFFFFF"/>
			<stop  offset="0.533742" style="stop-color:#C4C4C4"/>
			<stop  offset="1" style="stop-color:#FFFFFF"/>
		</linearGradient>
		<circle fill="url(#SVGID_13_)" cx="33.5053711" cy="36.2304688" r="3.9990234"/>
		<linearGradient id="SVGID_14_" gradientUnits="userSpaceOnUse" x1="4.4902344" y1="21.28125" x2="44.3554688" y2="21.28125">
			<stop  offset="0" style="stop-color:#FFFFFF"/>
			<stop  offset="0.533742" style="stop-color:#C4C4C4"/>
			<stop  offset="1" style="stop-color:#FFFFFF"/>
		</linearGradient>
		<path fill="url(#SVGID_14_)" d="M43.144043,14.7685547l-0.5097656-0.2617188
			c-0.9345703-0.4804688-1.9521484-0.3662109-2.2714844,0.2548828l-6.140625,11.9472656H18.4135742l-5.5234375-15.4257812H6.605957
			c0,0-2.0947266,0.1914062-2.0947266,2.2851562c0,0-0.3808594,1.8095703,2.0947266,1.8095703h3.046875l5.3320312,15.9013672
			h20.5195312c0,0,1.3554688-0.0771484,1.8808594-1.1845703c0.0253906-0.0351562,0.0556641-0.0664062,0.0761719-0.1054688
			l6.796875-13.2246094C44.5786133,16.1435547,44.0795898,15.25,43.144043,14.7685547z"/>
		<linearGradient id="SVGID_15_" gradientUnits="userSpaceOnUse" x1="31.1323242" y1="11.5473633" x2="21.6741943" y2="25.0549717">
			<stop  offset="0" style="stop-color:#FFFFFF"/>
			<stop  offset="0.533742" style="stop-color:#C4C4C4"/>
			<stop  offset="1" style="stop-color:#FFFFFF"/>
		</linearGradient>
		<polygon fill="url(#SVGID_15_)" points="17.0756836,16.0097656 19.8413086,23.7714844 33.5053711,23.7714844 
			37.5043945,16.0097656 		"/>
	</g>
	<g>
		
			<linearGradient id="SVGID_16_" gradientUnits="userSpaceOnUse" x1="-165.065918" y1="10.2138672" x2="-185.4311066" y2="39.2983627">
			<stop  offset="0" style="stop-color:#7EE7FD"/>
			<stop  offset="0.533742" style="stop-color:#119EE0"/>
			<stop  offset="1" style="stop-color:#7EE7FD"/>
		</linearGradient>
		<path fill="url(#SVGID_16_)" d="M-175.2480469,7.0058594C-185.0522461,7.0058594-193,14.953125-193,24.7578125
			c0,9.8027344,7.9477539,17.75,17.7519531,17.75s17.7519531-7.9472656,17.7519531-17.75
			C-157.4960938,14.953125-165.4438477,7.0058594-175.2480469,7.0058594z M-175.2480469,38.8457031
			c-7.7802734,0-14.0883789-6.3085938-14.0883789-14.0878906c0-7.78125,6.3081055-14.0898438,14.0883789-14.0898438
			c7.7797852,0,14.0878906,6.3085938,14.0878906,14.0898438C-161.1601562,32.5371094-167.4682617,38.8457031-175.2480469,38.8457031
			z"/>
		
			<linearGradient id="SVGID_17_" gradientUnits="userSpaceOnUse" x1="-169.230957" y1="15.4790039" x2="-181.2923126" y2="32.7043953">
			<stop  offset="0" style="stop-color:#7EE7FD"/>
			<stop  offset="0.533742" style="stop-color:#119EE0"/>
			<stop  offset="1" style="stop-color:#7EE7FD"/>
		</linearGradient>
		<path fill="url(#SVGID_17_)" d="M-167.3271484,21.4609375l0.0019531-4.6474609
			c-1.7460938-1.1748047-4.9008789-1.9462891-8.1796875-1.9814453v11.7636719
			c-0.8657227-0.3457031-1.8857422-0.4785156-2.9482422-0.2939453c-2.5429688,0.4482422-4.3041992,2.4599609-3.9541016,4.4931641
			c0.3588867,2.0273438,2.7094727,3.3183594,5.2514648,2.8671875c2.3671875-0.4140625,4.034668-2.1894531,3.9667969-4.0751953
			v-9.9755859C-170.6923828,19.9179688-168.4282227,20.640625-167.3271484,21.4609375z"/>
	</g>
	<g>
		<linearGradient id="SVGID_18_" gradientUnits="userSpaceOnUse" x1="-62.40625" y1="6.6694336" x2="-72.756813" y2="21.4515686">
			<stop  offset="0" style="stop-color:#7EE7FD"/>
			<stop  offset="0.533742" style="stop-color:#119EE0"/>
			<stop  offset="1" style="stop-color:#7EE7FD"/>
		</linearGradient>
		<path fill="url(#SVGID_18_)" d="M-56.0864258,11.1708984h-22.9853516c-0.1933594,0-0.3486328,0.1542969-0.3486328,0.3457031
			v5.0878906c0,0.1914062,0.1552734,0.3476562,0.3486328,0.3476562h22.9853516c0.1904297,0,0.3466797-0.15625,0.3466797-0.3476562
			v-5.0878906C-55.7397461,11.3251953-55.8959961,11.1708984-56.0864258,11.1708984z"/>
		
			<linearGradient id="SVGID_19_" gradientUnits="userSpaceOnUse" x1="-68.9145508" y1="18.2080078" x2="-79.2658157" y2="32.9911423">
			<stop  offset="0" style="stop-color:#7EE7FD"/>
			<stop  offset="0.533742" style="stop-color:#119EE0"/>
			<stop  offset="1" style="stop-color:#7EE7FD"/>
		</linearGradient>
		<path fill="url(#SVGID_19_)" d="M-62.5961914,22.7080078H-85.581543c-0.1923828,0-0.3476562,0.15625-0.3476562,0.3476562
			v5.0878906c0,0.1933594,0.1552734,0.3476562,0.3476562,0.3476562h22.9853516c0.1904297,0,0.3466797-0.1542969,0.3466797-0.3476562
			v-5.0878906C-62.2495117,22.8642578-62.4057617,22.7080078-62.5961914,22.7080078z"/>
		
			<linearGradient id="SVGID_20_" gradientUnits="userSpaceOnUse" x1="-63.5732422" y1="28.8540039" x2="-73.9236679" y2="43.6359367">
			<stop  offset="0" style="stop-color:#7EE7FD"/>
			<stop  offset="0.533742" style="stop-color:#119EE0"/>
			<stop  offset="1" style="stop-color:#7EE7FD"/>
		</linearGradient>
		<path fill="url(#SVGID_20_)" d="M-57.2553711,33.3544922h-22.984375c-0.1933594,0-0.3486328,0.15625-0.3486328,0.3457031
			v5.0898438c0,0.1914062,0.1552734,0.3457031,0.3486328,0.3457031h22.984375c0.1904297,0,0.3476562-0.1542969,0.3476562-0.3457031
			v-5.0898438C-56.9077148,33.5107422-57.0649414,33.3544922-57.2553711,33.3544922z"/>
		<g>
			
				<linearGradient id="SVGID_21_" gradientUnits="userSpaceOnUse" x1="-82.0732422" y1="10.6352539" x2="-88.1915741" y2="19.3731422">
				<stop  offset="0" style="stop-color:#7EE7FD"/>
				<stop  offset="0.533742" style="stop-color:#119EE0"/>
				<stop  offset="1" style="stop-color:#7EE7FD"/>
			</linearGradient>
			<path fill="url(#SVGID_21_)" d="M-82.3100586,19.6669922h-5.4619141v-1.2011719h1.6679688v-7.3359375l-1.8320312,0.390625
				v-1.203125l2.8710938-0.9238281h1.2177734v9.0722656h1.5371094V19.6669922z"/>
		</g>
		<g>
			
				<linearGradient id="SVGID_22_" gradientUnits="userSpaceOnUse" x1="-87.9726562" y1="21.6542969" x2="-94.3171463" y2="30.7151661">
				<stop  offset="0" style="stop-color:#7EE7FD"/>
				<stop  offset="0.533742" style="stop-color:#119EE0"/>
				<stop  offset="1" style="stop-color:#7EE7FD"/>
			</linearGradient>
			<path fill="url(#SVGID_22_)" d="M-87.8422852,30.7509766h-6.4248047v-0.8945312
				c0-0.734375,0.1816406-1.4472656,0.5458984-2.1367188c0.3652344-0.6914062,1.0644531-1.4667969,2.0996094-2.3261719
				c0.546875-0.4609375,0.921875-0.8417969,1.1230469-1.1386719c0.203125-0.2988281,0.3046875-0.6367188,0.3046875-1.0097656
				c0-0.96875-0.5234375-1.4550781-1.5712891-1.4550781c-0.5839844,0-1.3027344,0.1542969-2.1542969,0.4648438v-1.3867188
				c0.9345703-0.2792969,1.8447266-0.4179688,2.7285156-0.4179688c1.0849609,0,1.90625,0.2285156,2.4667969,0.6855469
				c0.5605469,0.4589844,0.8417969,1.1367188,0.8417969,2.0292969c0,0.4257812-0.0693359,0.8203125-0.2089844,1.1757812
				s-0.3447266,0.6894531-0.6142578,1c-0.2714844,0.3125-0.6738281,0.6894531-1.2060547,1.1386719
				c-0.5898438,0.4921875-1.0175781,0.8769531-1.2861328,1.15625c-0.2695312,0.2832031-0.4794922,0.5664062-0.6318359,0.8554688
				c-0.1533203,0.2890625-0.2431641,0.5898438-0.2705078,0.9003906h4.2578125V30.7509766z"/>
		</g>
		<g>
			
				<linearGradient id="SVGID_23_" gradientUnits="userSpaceOnUse" x1="-84.03125" y1="32.6533203" x2="-90.2001343" y2="41.4634056">
				<stop  offset="0" style="stop-color:#7EE7FD"/>
				<stop  offset="0.533742" style="stop-color:#119EE0"/>
				<stop  offset="1" style="stop-color:#7EE7FD"/>
			</linearGradient>
			<path fill="url(#SVGID_23_)" d="M-89.4047852,33.3994141v-1.3554688
				c0.8710938-0.2226562,1.6865234-0.3359375,2.4482422-0.3359375c2.2001953,0,3.3007812,0.84375,3.3007812,2.53125
				c0,1.1933594-0.6132812,1.9824219-1.8447266,2.3652344c0.6416016,0.1171875,1.1386719,0.3847656,1.4892578,0.8085938
				c0.3505859,0.4199219,0.5263672,0.9472656,0.5263672,1.5761719c0,1.0488281-0.3076172,1.8320312-0.9228516,2.3520508
				c-0.6142578,0.5175781-1.5664062,0.7792969-2.8554688,0.7792969c-0.8388672,0-1.6572266-0.1074219-2.4560547-0.3203125v-1.355957
				c0.9589844,0.2246094,1.6679688,0.3359375,2.1328125,0.3359375c0.6074219,0,1.0576172-0.1425781,1.3505859-0.421875
				c0.2949219-0.28125,0.4423828-0.7226562,0.4423828-1.328125c0-0.6601562-0.2060547-1.1210938-0.6171875-1.3789062
				c-0.4091797-0.2578125-1.2128906-0.3847656-2.4042969-0.3847656v-1.2929688c1.1201172,0,1.8828125-0.1152344,2.2861328-0.3457031
				c0.4023438-0.2304688,0.6044922-0.6445312,0.6044922-1.2460938c0-0.8886719-0.4990234-1.3320312-1.4970703-1.3320312
				C-87.8764648,33.0498047-88.5385742,33.1650391-89.4047852,33.3994141z"/>
		</g>
	</g>
	
		<linearGradient id="SVGID_24_" gradientUnits="userSpaceOnUse" x1="-116.2871094" y1="18.1611328" x2="-134.6162109" y2="44.3377991">
		<stop  offset="0" style="stop-color:#7EE7FD"/>
		<stop  offset="0.533742" style="stop-color:#119EE0"/>
		<stop  offset="1" style="stop-color:#7EE7FD"/>
	</linearGradient>
	<path fill="url(#SVGID_24_)" d="M-122.9418945,36.7416992c-0.5-4.171875,0.453125-7.8925781,0.9082031-9.0253906
		c0.453125-1.1367188,0.1347656-2.4960938,3.6738281,1.1777344c3.5371094,3.6757812,4.4902344,3.7207031,5.9873047,4.6738281
		c1.4970703,0.9511719,4.9443359,3.8554688,5.4892578,4.4003906c0.5439453,0.5429688,1.9960938,1.1328125,2.9941406,1.1777344
		c0.9980469,0.046875,0.8164062-0.453125,0.8164062-0.453125s-0.7265625-0.9082031-0.4082031-1.9960938
		c0.3164062-1.0878906-1.3164062-1.0429688-1.3164062-1.0429688c-2.5390625-0.2265625-3.7636719-2.0410156-3.7636719-2.0410156
		c-2.0878906-3.5390625-6.8056641-7.53125-6.8515625-7.6699219c-0.0439453-0.1367188-2.765625-1.7207031-3.8095703-3.9902344
		c-1.0439453-2.2675781-3.1298828-4.4902344-3.1298828-4.4902344c-1.1347656-1.4960938-3.9921875-0.6347656-3.9921875-0.6347656
		s-1.9960938,0.2714844-1.2705078-0.8164062c0.7255859-1.0898438,0.1367188-1.1796875-0.25-1.7695312
		c-0.3876953-0.5898438-0.1123047-1.2714844-0.1123047-1.2714844c0.6347656-2.3574219-1.5878906-3.8554688-2.4951172-4.7167969
		s-2.9951172-0.953125-3.6748047-0.3632812s-0.9521484,0.6816406-0.9521484,0.6816406
		c-1.8154297,0.1816406-3.5849609,2.8125-3.9931641,2.8574219c-0.4072266,0.0449219-0.4072266,0.3632812-0.2265625,0.3164062
		c0.1816406-0.0449219,0.2265625,0.4101562,0.3632812,0.5c0.1367188,0.0917969,0.4541016,0.453125,0.4541016,0.8164062
		s-0.0908203,0.953125,0.4082031,1.2246094s0,1.1796875,0,1.1796875s0.0908203,0.9980469-0.3642578,0.953125
		c-0.453125-0.0449219-0.8144531,0.8164062-0.8144531,1.1328125c0,0.3183594-0.3183594,0.4101562-0.4101562,0.2285156
		c-0.0898438-0.1816406-0.6796875-0.7714844-0.8154297-0.4082031c-0.1367188,0.3632812-1.3613281,1.2695312-1.9501953,1.6328125
		c-0.5898438,0.3632812-0.453125,0.9082031-0.453125,0.9082031l-3.5390625,2.1757812l0.6347656,1.1347656l2.359375-1.5429688
		c-0.1826172,0.5449219,0.4082031,1.0429688,0.6796875,0.9082031c0.2724609-0.1367188,0.953125-0.2265625,0.8164062,0.7246094
		c-0.1367188,0.953125,1.3154297,8.8476562,2.2695312,11.25c0.9521484,2.4042969,2.8574219,1.0898438,3.7636719,0.1816406
		c0.9072266-0.90625,0.8173828-0.0898438,0.8173828-0.0898438c-0.8173828,4.8535156,0,9.3442383,0,9.3442383
		S-129.0141602,37.8198242-122.9418945,36.7416992z M-131.878418,21.6811523c0,0-2.8583984,2.7675781-2.8134766,3.1757812
		c0.046875,0.4082031,0.1914062,0.9960938-0.4023438,2.0410156c-0.5957031,1.0449219-1.8652344,3.0214844-1.9101562,3.7578125
		c-0.0449219,0.734375-1.3613281-3.7578125-2.0410156-5.4804688c-0.6806641-1.7246094-0.3183594-3.5292969-0.2265625-3.8066406
		c0.0898438-0.2773438,0.2597656-1.921875,0.6796875-1.9550781c0,0,1.859375-0.0449219,1.9042969-0.8613281
		c0.0458984-0.8183594,0.2734375-1.0449219,0.5-0.453125c0.2265625,0.5878906,0.6347656,1.4960938,1.4960938,1.5859375
		c0.8613281,0.0917969,2.1777344-0.9980469,2.8134766,0C-131.2436523,20.6831055-131.878418,21.6811523-131.878418,21.6811523z"/>
	<g>
		
			<linearGradient id="SVGID_25_" gradientUnits="userSpaceOnUse" x1="-22.5996094" y1="16.8032227" x2="-31.2312622" y2="29.1305008">
			<stop  offset="0" style="stop-color:#7EE7FD"/>
			<stop  offset="0.533742" style="stop-color:#119EE0"/>
			<stop  offset="1" style="stop-color:#7EE7FD"/>
		</linearGradient>
		<path fill="url(#SVGID_25_)" d="M-23.9985352,29.4658203l-0.5322266-1.9902344
			c-0.5371094,0.7421875-1.1386719,1.2910156-1.8056641,1.6464844c-0.6660156,0.3554688-1.4814453,0.5332031-2.4443359,0.5332031
			c-1.3652344,0-2.4257812-0.3613281-3.1787109-1.0839844c-0.7539062-0.7226562-1.1308594-1.734375-1.1308594-3.0371094
			c0-1.578125,0.5488281-2.7246094,1.6455078-3.4394531c1.0966797-0.7128906,3.0625-1.078125,5.8964844-1.09375v-0.8652344
			c0-0.6386719-0.0751953-1.1191406-0.2246094-1.4433594c-0.1513672-0.3242188-0.4072266-0.5898438-0.7705078-0.7988281
			s-0.9082031-0.3144531-1.6337891-0.3144531c-0.9472656,0-2.1660156,0.2285156-3.6582031,0.6855469v-2.2832031
			c1.7441406-0.4179688,3.3300781-0.6289062,4.7597656-0.6289062c1.7832031,0,3.1337891,0.390625,4.0488281,1.1738281
			c0.9150391,0.7792969,1.3730469,1.9335938,1.3730469,3.4550781v9.484375H-23.9985352z M-26.1879883,22.9423828
			c-1.1767578,0-1.9794922,0.234375-2.4091797,0.7050781c-0.4306641,0.46875-0.6455078,1.0742188-0.6455078,1.8164062
			c0,1.3105469,0.5322266,1.9648438,1.5986328,1.9648438c0.6787109,0,1.1972656-0.2207031,1.5566406-0.6621094
			s0.5390625-1.0859375,0.5390625-1.9296875v-1.8945312H-26.1879883z"/>
		
			<linearGradient id="SVGID_26_" gradientUnits="userSpaceOnUse" x1="-13.6391602" y1="15.0205078" x2="-29.8131485" y2="38.1193542">
			<stop  offset="0" style="stop-color:#7EE7FD"/>
			<stop  offset="0.533742" style="stop-color:#119EE0"/>
			<stop  offset="1" style="stop-color:#7EE7FD"/>
		</linearGradient>
		<path fill="url(#SVGID_26_)" d="M-6.496582,37.9423828l-8.0986328-8.1015625
			c3.0068359-5.3691406,2.2431641-12.2871094-2.3251953-16.8535156c-5.5029297-5.5039062-14.4296875-5.5039062-19.9345703,0
			c-5.5048828,5.5058594-5.5048828,14.4335938,0,19.9375c4.9902344,4.9902344,12.7822266,5.4394531,18.2978516,1.3847656
			l7.8476562,7.8500977c0.6621094,0.6601562,1.7382812,0.6601562,2.4023438-0.0039062l1.8105469-1.809082
			C-5.8344727,39.6845703-5.8305664,38.6064453-6.496582,37.9423828z M-34.9155273,30.9873047
			c-4.4355469-4.4375-4.4355469-11.6269531-0.0009766-16.0585938c4.4326172-4.4375,11.6220703-4.4375,16.0576172,0
			c4.4326172,4.4335938,4.4326172,11.6230469,0,16.0566406C-23.293457,35.4189453-30.480957,35.4189453-34.9155273,30.9873047z"/>
	</g>
	<g>
		<linearGradient id="SVGID_27_" gradientUnits="userSpaceOnUse" x1="14.8422852" y1="36.230957" x2="22.840332" y2="36.230957">
			<stop  offset="0" style="stop-color:#7EE7FD"/>
			<stop  offset="0.533742" style="stop-color:#119EE0"/>
			<stop  offset="1" style="stop-color:#7EE7FD"/>
		</linearGradient>
		<circle fill="url(#SVGID_27_)" cx="18.8413086" cy="36.2304688" r="3.9990234"/>
		<linearGradient id="SVGID_28_" gradientUnits="userSpaceOnUse" x1="29.5063477" y1="36.230957" x2="37.5043945" y2="36.230957">
			<stop  offset="0" style="stop-color:#7EE7FD"/>
			<stop  offset="0.533742" style="stop-color:#119EE0"/>
			<stop  offset="1" style="stop-color:#7EE7FD"/>
		</linearGradient>
		<circle fill="url(#SVGID_28_)" cx="33.5053711" cy="36.2304688" r="3.9990234"/>
		<linearGradient id="SVGID_29_" gradientUnits="userSpaceOnUse" x1="4.4902344" y1="21.28125" x2="44.3554688" y2="21.28125">
			<stop  offset="0" style="stop-color:#7EE7FD"/>
			<stop  offset="0.533742" style="stop-color:#119EE0"/>
			<stop  offset="1" style="stop-color:#7EE7FD"/>
		</linearGradient>
		<path fill="url(#SVGID_29_)" d="M43.144043,14.7685547l-0.5097656-0.2617188
			c-0.9345703-0.4804688-1.9521484-0.3662109-2.2714844,0.2548828l-6.140625,11.9472656H18.4135742l-5.5234375-15.4257812H6.605957
			c0,0-2.0947266,0.1914062-2.0947266,2.2851562c0,0-0.3808594,1.8095703,2.0947266,1.8095703h3.046875l5.3320312,15.9013672
			h20.5195312c0,0,1.3554688-0.0771484,1.8808594-1.1845703c0.0253906-0.0351562,0.0556641-0.0664062,0.0761719-0.1054688
			l6.796875-13.2246094C44.5786133,16.1435547,44.0795898,15.25,43.144043,14.7685547z"/>
		<linearGradient id="SVGID_30_" gradientUnits="userSpaceOnUse" x1="31.1323242" y1="11.5473633" x2="21.6741943" y2="25.0549717">
			<stop  offset="0" style="stop-color:#7EE7FD"/>
			<stop  offset="0.533742" style="stop-color:#119EE0"/>
			<stop  offset="1" style="stop-color:#7EE7FD"/>
		</linearGradient>
		<polygon fill="url(#SVGID_30_)" points="17.0756836,16.0097656 19.8413086,23.7714844 33.5053711,23.7714844 
			37.5043945,16.0097656 		"/>
	</g>
</g>
<g id="Layer_4">
</g>
<g id="Layer_2">
</g>
</svg>
