<?xml version="1.0" encoding="utf-8"?>
<!-- Generator: Adobe Illustrator 14.0.0, SVG Export Plug-In . SVG Version: 6.00 Build 43363)  -->
<!DOCTYPE svg PUBLIC "-//W3C//DTD SVG 1.1//EN" "http://www.w3.org/Graphics/SVG/1.1/DTD/svg11.dtd">
<svg version="1.1" xmlns="http://www.w3.org/2000/svg" xmlns:xlink="http://www.w3.org/1999/xlink" x="0px" y="0px" width="50px"
	 height="50px" viewBox="0 0 50 50" enable-background="new 0 0 50 50" xml:space="preserve">
<g id="Layer_3">
</g>
<g id="Layer_1">
	<g>
		<linearGradient id="SVGID_1_" gradientUnits="userSpaceOnUse" x1="36.5932617" y1="6.6694336" x2="26.2429085" y2="21.4512672">
			<stop  offset="0" style="stop-color:#7EE7FD"/>
			<stop  offset="0.533742" style="stop-color:#119EE0"/>
			<stop  offset="1" style="stop-color:#7EE7FD"/>
		</linearGradient>
		<path fill="url(#SVGID_1_)" d="M42.9135742,11.1708984H19.9282227c-0.1933594,0-0.3486328,0.1542969-0.3486328,0.3457031
			v5.0878906c0,0.1914062,0.1552734,0.3476562,0.3486328,0.3476562h22.9853516c0.1904297,0,0.3466797-0.15625,0.3466797-0.3476562
			v-5.0878906C43.2602539,11.3251953,43.1040039,11.1708984,42.9135742,11.1708984z"/>
		<linearGradient id="SVGID_2_" gradientUnits="userSpaceOnUse" x1="30.0854492" y1="18.2075195" x2="19.7342567" y2="32.9905548">
			<stop  offset="0" style="stop-color:#7EE7FD"/>
			<stop  offset="0.533742" style="stop-color:#119EE0"/>
			<stop  offset="1" style="stop-color:#7EE7FD"/>
		</linearGradient>
		<path fill="url(#SVGID_2_)" d="M36.4038086,22.7080078H13.418457c-0.1923828,0-0.3476562,0.15625-0.3476562,0.3476562v5.0878906
			c0,0.1933594,0.1552734,0.3476562,0.3476562,0.3476562h22.9853516c0.1904297,0,0.3466797-0.1542969,0.3466797-0.3476562
			v-5.0878906C36.7504883,22.8642578,36.5942383,22.7080078,36.4038086,22.7080078z"/>
		<linearGradient id="SVGID_3_" gradientUnits="userSpaceOnUse" x1="35.4272461" y1="28.8544922" x2="25.0768242" y2="43.636425">
			<stop  offset="0" style="stop-color:#7EE7FD"/>
			<stop  offset="0.533742" style="stop-color:#119EE0"/>
			<stop  offset="1" style="stop-color:#7EE7FD"/>
		</linearGradient>
		<path fill="url(#SVGID_3_)" d="M41.7446289,33.3544922h-22.984375c-0.1933594,0-0.3486328,0.15625-0.3486328,0.3457031v5.0898438
			c0,0.1914062,0.1552734,0.3457031,0.3486328,0.3457031h22.984375c0.1904297,0,0.3476562-0.1542969,0.3476562-0.3457031v-5.0898438
			C42.0922852,33.5107422,41.9350586,33.3544922,41.7446289,33.3544922z"/>
		<g>
			<linearGradient id="SVGID_4_" gradientUnits="userSpaceOnUse" x1="16.9272461" y1="10.6357422" x2="10.8089104" y2="19.3736305">
				<stop  offset="0" style="stop-color:#7EE7FD"/>
				<stop  offset="0.533742" style="stop-color:#119EE0"/>
				<stop  offset="1" style="stop-color:#7EE7FD"/>
			</linearGradient>
			<path fill="url(#SVGID_4_)" d="M16.6899414,19.6669922h-5.4619141v-1.2011719h1.6679688v-7.3359375l-1.8320312,0.390625
				v-1.203125l2.8710938-0.9238281h1.2177734v9.0722656h1.5371094V19.6669922z"/>
		</g>
		<g>
			<linearGradient id="SVGID_5_" gradientUnits="userSpaceOnUse" x1="11.027832" y1="21.6547852" x2="4.6830626" y2="30.7160549">
				<stop  offset="0" style="stop-color:#7EE7FD"/>
				<stop  offset="0.533742" style="stop-color:#119EE0"/>
				<stop  offset="1" style="stop-color:#7EE7FD"/>
			</linearGradient>
			<path fill="url(#SVGID_5_)" d="M11.1577148,30.7509766H4.7329102v-0.8945312c0-0.734375,0.1816406-1.4472656,0.5458984-2.1367188
				c0.3652344-0.6914062,1.0644531-1.4667969,2.0996094-2.3261719c0.546875-0.4609375,0.921875-0.8417969,1.1230469-1.1386719
				c0.203125-0.2988281,0.3046875-0.6367188,0.3046875-1.0097656c0-0.96875-0.5234375-1.4550781-1.5712891-1.4550781
				c-0.5839844,0-1.3027344,0.1542969-2.1542969,0.4648438v-1.3867188c0.9345703-0.2792969,1.8447266-0.4179688,2.7285156-0.4179688
				c1.0849609,0,1.90625,0.2285156,2.4667969,0.6855469c0.5605469,0.4589844,0.8417969,1.1367188,0.8417969,2.0292969
				c0,0.4257812-0.0693359,0.8203125-0.2089844,1.1757812s-0.3447266,0.6894531-0.6142578,1
				c-0.2714844,0.3125-0.6738281,0.6894531-1.2060547,1.1386719c-0.5898438,0.4921875-1.0175781,0.8769531-1.2861328,1.15625
				c-0.2695312,0.2832031-0.4794922,0.5664062-0.6318359,0.8554688c-0.1533203,0.2890625-0.2431641,0.5898438-0.2705078,0.9003906
				h4.2578125V30.7509766z"/>
		</g>
		<g>
			<linearGradient id="SVGID_6_" gradientUnits="userSpaceOnUse" x1="14.9682617" y1="32.6533203" x2="8.7995138" y2="41.4632034">
				<stop  offset="0" style="stop-color:#7EE7FD"/>
				<stop  offset="0.533742" style="stop-color:#119EE0"/>
				<stop  offset="1" style="stop-color:#7EE7FD"/>
			</linearGradient>
			<path fill="url(#SVGID_6_)" d="M9.5952148,33.3994141v-1.3554688c0.8710938-0.2226562,1.6865234-0.3359375,2.4482422-0.3359375
				c2.2001953,0,3.3007812,0.84375,3.3007812,2.53125c0,1.1933594-0.6132812,1.9824219-1.8447266,2.3652344
				c0.6416016,0.1171875,1.1386719,0.3847656,1.4892578,0.8085938c0.3505859,0.4199219,0.5263672,0.9472656,0.5263672,1.5761719
				c0,1.0488281-0.3076172,1.8320312-0.9228516,2.3520508c-0.6142578,0.5175781-1.5664062,0.7792969-2.8554688,0.7792969
				c-0.8388672,0-1.6572266-0.1074219-2.4560547-0.3203125v-1.355957c0.9589844,0.2246094,1.6679688,0.3359375,2.1328125,0.3359375
				c0.6074219,0,1.0576172-0.1425781,1.3505859-0.421875c0.2949219-0.28125,0.4423828-0.7226562,0.4423828-1.328125
				c0-0.6601562-0.2060547-1.1210938-0.6171875-1.3789062c-0.4091797-0.2578125-1.2128906-0.3847656-2.4042969-0.3847656v-1.2929688
				c1.1201172,0,1.8828125-0.1152344,2.2861328-0.3457031c0.4023438-0.2304688,0.6044922-0.6445312,0.6044922-1.2460938
				c0-0.8886719-0.4990234-1.3320312-1.4970703-1.3320312C11.1235352,33.0498047,10.4614258,33.1650391,9.5952148,33.3994141z"/>
		</g>
	</g>
</g>
<g id="Layer_4">
</g>
<g id="Layer_2">
</g>
</svg>
