<?xml version="1.0" encoding="utf-8"?>
<!-- Generator: Adobe Illustrator 14.0.0, SVG Export Plug-In . SVG Version: 6.00 Build 43363)  -->
<!DOCTYPE svg PUBLIC "-//W3C//DTD SVG 1.1//EN" "http://www.w3.org/Graphics/SVG/1.1/DTD/svg11.dtd">
<svg version="1.1" xmlns="http://www.w3.org/2000/svg" xmlns:xlink="http://www.w3.org/1999/xlink" x="0px" y="0px" width="50px"
	 height="50px" viewBox="0 0 50 50" enable-background="new 0 0 50 50" xml:space="preserve">
<g id="Layer_3">
</g>
<g id="Layer_1">
	<g>
		<linearGradient id="SVGID_1_" gradientUnits="userSpaceOnUse" x1="25.4008789" y1="16.8041992" x2="16.7693653" y2="29.1312771">
			<stop  offset="0" style="stop-color:#FFFFFF"/>
			<stop  offset="0.533742" style="stop-color:#C4C4C4"/>
			<stop  offset="1" style="stop-color:#FFFFFF"/>
		</linearGradient>
		<path fill="url(#SVGID_1_)" d="M24.0014648,29.4658203l-0.5322266-1.9902344
			c-0.5371094,0.7421875-1.1386719,1.2910156-1.8056641,1.6464844c-0.6660156,0.3554688-1.4814453,0.5332031-2.4443359,0.5332031
			c-1.3652344,0-2.4257812-0.3613281-3.1787109-1.0839844c-0.7539062-0.7226562-1.1308594-1.734375-1.1308594-3.0371094
			c0-1.578125,0.5488281-2.7246094,1.6455078-3.4394531c1.0966797-0.7128906,3.0625-1.078125,5.8964844-1.09375v-0.8652344
			c0-0.6386719-0.0751953-1.1191406-0.2246094-1.4433594c-0.1513672-0.3242188-0.4072266-0.5898438-0.7705078-0.7988281
			s-0.9082031-0.3144531-1.6337891-0.3144531c-0.9472656,0-2.1660156,0.2285156-3.6582031,0.6855469v-2.2832031
			c1.7441406-0.4179688,3.3300781-0.6289062,4.7597656-0.6289062c1.7832031,0,3.1337891,0.390625,4.0488281,1.1738281
			c0.9150391,0.7792969,1.3730469,1.9335938,1.3730469,3.4550781v9.484375H24.0014648z M21.8120117,22.9423828
			c-1.1767578,0-1.9794922,0.234375-2.4091797,0.7050781c-0.4306641,0.46875-0.6455078,1.0742188-0.6455078,1.8164062
			c0,1.3105469,0.5322266,1.9648438,1.5986328,1.9648438c0.6787109,0,1.1972656-0.2207031,1.5566406-0.6621094
			s0.5390625-1.0859375,0.5390625-1.9296875v-1.8945312H21.8120117z"/>
		<linearGradient id="SVGID_2_" gradientUnits="userSpaceOnUse" x1="34.3623047" y1="15.0214844" x2="18.1885262" y2="38.1200333">
			<stop  offset="0" style="stop-color:#FFFFFF"/>
			<stop  offset="0.533742" style="stop-color:#C4C4C4"/>
			<stop  offset="1" style="stop-color:#FFFFFF"/>
		</linearGradient>
		<path fill="url(#SVGID_2_)" d="M41.503418,37.9423828l-8.0986328-8.1015625
			c3.0068359-5.3691406,2.2431641-12.2871094-2.3251953-16.8535156c-5.5029297-5.5039062-14.4296875-5.5039062-19.9345703,0
			c-5.5048828,5.5058594-5.5048828,14.4335938,0,19.9375c4.9902344,4.9902344,12.7822266,5.4394531,18.2978516,1.3847656
			l7.8476562,7.8500977c0.6621094,0.6601562,1.7382812,0.6601562,2.4023438-0.0039062l1.8105469-1.809082
			C42.1655273,39.6845703,42.1694336,38.6064453,41.503418,37.9423828z M13.0844727,30.9873047
			c-4.4355469-4.4375-4.4355469-11.6269531-0.0009766-16.0585938c4.4326172-4.4375,11.6220703-4.4375,16.0576172,0
			c4.4326172,4.4335938,4.4326172,11.6230469,0,16.0566406C24.706543,35.4189453,17.519043,35.4189453,13.0844727,30.9873047z"/>
	</g>
</g>
<g id="Layer_4">
</g>
<g id="Layer_2">
</g>
</svg>
